# xmcd
#
# Track frame offsets: 
#        150
#        19504
#        37084
#        50662
#        69430
#        89909
#        109539
#        134200
#        152377
#        178351
#        204926
#        223067
#
# Disc length: 3187 seconds
#
# Revision: 0
# Processed by: cddbd v1.5.2PL0 Copyright (c) Steve Scherf et al.
# Submitted via: ExactAudioCopy v1.0b1
#
DISCID=b20c710c
DTITLE=South City Blues Band - Comin Home
DYEAR=2012
DGENRE=Blues
TTITLE0=Seven nites to rock
TTITLE1=Misfortune
TTITLE2=Nosey Joe
TTITLE3=Sembody
TTITLE4=Oh pretty woman
TTITLE5=Bad behavior
TTITLE6=Help the poor
TTITLE7=T-bone shuffle
TTITLE8=My first crime
TTITLE9=Comin home
TTITLE10=Kidney stew
TTITLE11=Shake you boogie
EXTD=
EXTT0=
EXTT1=
EXTT2=
EXTT3=
EXTT4=
EXTT5=
EXTT6=
EXTT7=
EXTT8=
EXTT9=
EXTT10=
EXTT11=
PLAYORDER=
